<svg width="71" height="72" viewBox="0 0 71 72" fill="none" xmlns="http://www.w3.org/2000/svg">
<path d="M35.5 0.5C55.1067 0.5 71 16.3933 71 36C71 55.6066 55.1067 71.5 35.5 71.5C29.2264 71.5101 23.0632 69.8498 17.6435 66.6897L0.0142499 71.5L4.81385 53.8636C1.65113 48.4423 -0.0104312 42.2764 4.92748e-05 36C4.92748e-05 16.3933 15.8934 0.5 35.5 0.5ZM23.4016 19.315L22.6916 19.3434C22.232 19.3714 21.7828 19.4921 21.371 19.6984C20.9859 19.9165 20.6344 20.1891 20.3273 20.5078C19.9013 20.9089 19.6599 21.2568 19.4008 21.5941C18.0877 23.3013 17.3807 25.3972 17.3915 27.551C17.3986 29.2905 17.853 30.9838 18.563 32.5671C20.0149 35.7692 22.4041 39.1595 25.5565 42.3012C26.3162 43.0574 27.0617 43.8171 27.864 44.5235C31.781 47.9722 36.4488 50.4593 41.496 51.7868L43.5124 52.0957C44.1691 52.1312 44.8259 52.0815 45.4862 52.0495C46.5201 51.9961 47.5296 51.7162 48.4433 51.2295C48.9082 50.99 49.3619 50.7294 49.803 50.4485C49.803 50.4485 49.9556 50.3491 50.2467 50.129C50.726 49.774 51.0206 49.5219 51.4182 49.1066C51.7129 48.8013 51.9685 48.4427 52.1637 48.0345C52.4406 47.4558 52.7175 46.3518 52.8311 45.4323C52.9163 44.7294 52.8915 44.346 52.8808 44.1082C52.8666 43.7283 52.5507 43.3343 52.2063 43.1674L50.1402 42.2409C50.1402 42.2409 47.0517 40.8954 45.1631 40.0363C44.9655 39.95 44.7537 39.9007 44.5383 39.8908C44.2954 39.8658 44.05 39.8932 43.8186 39.9709C43.5871 40.0487 43.375 40.1751 43.1964 40.3416C43.1787 40.3345 42.9408 40.5369 40.3742 43.6467C40.2269 43.8446 40.0239 43.9942 39.7913 44.0764C39.5586 44.1586 39.3067 44.1697 39.0678 44.1082C38.8365 44.0462 38.6099 43.9679 38.3897 43.8739C37.9495 43.6893 37.7969 43.6183 37.4951 43.4905C35.4577 42.6014 33.5713 41.4001 31.9039 39.9298C31.4566 39.5393 31.0412 39.1133 30.6152 38.7015C29.2186 37.364 28.0014 35.8509 26.9942 34.2001L26.7848 33.8629C26.6343 33.6363 26.5127 33.3918 26.4227 33.1351C26.2878 32.6133 26.6392 32.1944 26.6392 32.1944C26.6392 32.1944 27.5019 31.2501 27.903 30.7389C28.2935 30.2419 28.6237 29.7591 28.8367 29.4147C29.2556 28.7402 29.3869 28.048 29.1668 27.5119C28.1728 25.0837 27.1433 22.6662 26.0854 20.2664C25.876 19.7907 25.2547 19.4499 24.6903 19.3824C24.4986 19.3611 24.3069 19.3398 24.1152 19.3256C23.6384 19.302 23.1607 19.3067 22.6845 19.3398L23.3981 19.3114L23.4016 19.315Z" fill="#ECC140"/>
</svg>
