<svg xmlns="http://www.w3.org/2000/svg" width="113" height="113" viewBox="0 0 113 113" fill="none">
  <circle cx="56.5" cy="56.5" r="56.5" fill="white"/>
  <path d="M90.0095 21.3792C90.3139 21.5828 90.5635 21.8583 90.7362 22.1812C90.909 22.5041 90.9996 22.8646 91 23.2308V56.6923C90.9999 57.1378 90.8664 57.5731 90.6167 57.942C90.367 58.311 90.0126 58.5967 89.5991 58.7625L89.5857 58.7669L89.5589 58.7803L89.4563 58.8205C88.8697 59.0536 88.2792 59.2767 87.6851 59.4897C86.5072 59.9135 84.8698 60.4846 83.0138 61.0512C79.3732 62.1755 74.6306 63.3846 70.9231 63.3846C67.1442 63.3846 64.0166 62.1354 61.2951 61.0423L61.1702 60.9977C58.3415 59.86 55.9323 58.9231 53.0769 58.9231C49.9538 58.9231 45.7689 59.9492 42.2042 61.0512C40.6081 61.5487 39.0265 62.0917 37.4615 62.6797V90.1538C37.4615 90.7455 37.2265 91.3129 36.8082 91.7312C36.3898 92.1496 35.8224 92.3846 35.2308 92.3846C34.6391 92.3846 34.0717 92.1496 33.6534 91.7312C33.235 91.3129 33 90.7455 33 90.1538V23.2308C33 22.6391 33.235 22.0717 33.6534 21.6534C34.0717 21.235 34.6391 21 35.2308 21C35.8224 21 36.3898 21.235 36.8082 21.6534C37.2265 22.0717 37.4615 22.6391 37.4615 23.2308V24.4889C38.4698 24.1365 39.6745 23.7305 40.9862 23.3289C44.6268 22.2135 49.3738 21 53.0769 21C56.8246 21 59.8763 22.2358 62.5398 23.3155L62.7317 23.3958C65.5068 24.5157 67.9249 25.4615 70.9231 25.4615C74.0462 25.4615 78.2311 24.4354 81.7958 23.3334C83.8272 22.699 85.8348 21.9906 87.8145 21.2097L87.8992 21.1785L87.9171 21.1695H87.9215" fill="#00356B"/>
</svg>