<svg width="26" height="26" viewBox="0 0 26 26" fill="none" xmlns="http://www.w3.org/2000/svg">
<path d="M6.18983 0.652832C4.78271 0.652832 3.43322 1.21181 2.43824 2.20679C1.44325 3.20178 0.884277 4.55127 0.884277 5.95839V20.1065C0.884277 21.5137 1.44325 22.8631 2.43824 23.8581C3.43322 24.8531 4.78271 25.4121 6.18983 25.4121H20.338C21.7451 25.4121 23.0946 24.8531 24.0896 23.8581C25.0846 22.8631 25.6435 21.5137 25.6435 20.1065V5.95839C25.6435 4.55127 25.0846 3.20178 24.0896 2.20679C23.0946 1.21181 21.7451 0.652832 20.338 0.652832H6.18983ZM19.1955 10.1215L12.1214 17.1956C12.0393 17.2779 11.9417 17.3432 11.8343 17.3878C11.7269 17.4324 11.6117 17.4553 11.4954 17.4553C11.3791 17.4553 11.2639 17.4324 11.1565 17.3878C11.0491 17.3432 10.9515 17.2779 10.8693 17.1956L7.3323 13.6585C7.16626 13.4925 7.07298 13.2673 7.07298 13.0325C7.07298 12.7976 7.16626 12.5724 7.3323 12.4064C7.49834 12.2404 7.72354 12.1471 7.95835 12.1471C8.19317 12.1471 8.41837 12.2404 8.58441 12.4064L11.4954 15.3192L17.9434 8.86937C18.1094 8.70333 18.3346 8.61005 18.5695 8.61005C18.8043 8.61005 19.0295 8.70333 19.1955 8.86937C19.3616 9.03541 19.4548 9.26061 19.4548 9.49543C19.4548 9.73024 19.3616 9.95544 19.1955 10.1215Z" fill="#FFDF80"/>
</svg>
