<svg width="165" height="165" viewBox="0 0 165 165" fill="none" xmlns="http://www.w3.org/2000/svg">
<circle cx="82.5" cy="82.5" r="81" stroke="#00356B" stroke-width="3"/>
<path d="M89.7143 92.1786C89.7143 93.5796 88.5796 94.7143 87.1786 94.7143H71.9643C70.5633 94.7143 69.4286 93.5796 69.4286 92.1786V84.5714H39V107.393C39 111.45 42.55 115 46.6071 115H112.536C116.593 115 120.143 111.45 120.143 107.393V84.5714H89.7143V92.1786ZM112.536 59.2143H99.8571V51.6071C99.8571 47.55 96.3071 44 92.25 44H66.8929C62.8357 44 59.2857 47.55 59.2857 51.6071V59.2143H46.6071C42.55 59.2143 39 62.7643 39 66.8214V79.5H120.143V66.8214C120.143 62.7643 116.593 59.2143 112.536 59.2143ZM89.7143 59.2143H69.4286V54.1429H89.7143V59.2143Z" fill="#00356B"/>
</svg>
