<svg xmlns="http://www.w3.org/2000/svg" width="152" height="152" viewBox="0 0 152 152" fill="none">
  <circle cx="76" cy="76" r="74" fill="white" stroke="#00356B" stroke-width="4"/>
  <path d="M121.075 32.4523C121.484 32.7261 121.82 33.0966 122.052 33.531C122.285 33.9653 122.406 34.4502 122.407 34.9428V79.953C122.407 80.5523 122.227 81.1378 121.891 81.6341C121.556 82.1304 121.079 82.5147 120.523 82.7377L120.505 82.7437L120.469 82.7617L120.33 82.8157C119.541 83.1293 118.747 83.4294 117.948 83.7159C116.364 84.286 114.161 85.0542 111.665 85.8164C106.767 87.3287 100.388 88.9551 95.4008 88.9551C90.3177 88.9551 86.1107 87.2747 82.4499 85.8044L82.2819 85.7443C78.477 84.214 75.2363 82.9537 71.3954 82.9537C67.1945 82.9537 61.5652 84.334 56.7701 85.8164C54.6231 86.4855 52.4958 87.2159 50.3906 88.0069V124.963C50.3906 125.759 50.0745 126.522 49.5118 127.085C48.949 127.648 48.1858 127.964 47.39 127.964C46.5941 127.964 45.8309 127.648 45.2682 127.085C44.7054 126.522 44.3893 125.759 44.3893 124.963V34.9428C44.3893 34.147 44.7054 33.3838 45.2682 32.821C45.8309 32.2583 46.5941 31.9421 47.39 31.9421C48.1858 31.9421 48.949 32.2583 49.5118 32.821C50.0745 33.3838 50.3906 34.147 50.3906 34.9428V36.6352C51.747 36.1611 53.3673 35.615 55.1317 35.0748C60.0288 33.5745 66.4143 31.9421 71.3954 31.9421C76.4366 31.9421 80.5415 33.6045 84.1243 35.0568L84.3823 35.1649C88.1152 36.6712 91.3679 37.9435 95.4008 37.9435C99.6018 37.9435 105.231 36.5632 110.026 35.0809C112.759 34.2275 115.459 33.2747 118.122 32.2242L118.236 32.1822L118.26 32.1702H118.266" fill="#00356B"/>
</svg>