<svg width="74" height="75" viewBox="0 0 74 75" fill="none" xmlns="http://www.w3.org/2000/svg">
<path d="M37 0.5C16.576 0.5 0 17.076 0 37.5C0 57.924 16.576 74.5 37 74.5C57.424 74.5 74 57.924 74 37.5C74 17.076 57.424 0.5 37 0.5ZM54.168 25.66C53.613 31.506 51.208 45.714 49.987 52.263C49.469 55.038 48.433 55.963 47.471 56.074C45.325 56.259 43.697 54.668 41.625 53.299C38.369 51.153 36.519 49.821 33.374 47.749C29.711 45.344 32.079 44.012 34.188 41.866C34.743 41.311 44.215 32.69 44.4 31.913C44.4257 31.7953 44.4223 31.6731 44.39 31.5571C44.3578 31.441 44.2977 31.3346 44.215 31.247C43.993 31.062 43.697 31.136 43.438 31.173C43.105 31.247 37.925 34.688 27.824 41.496C26.344 42.495 25.012 43.013 23.828 42.976C22.496 42.939 19.98 42.236 18.093 41.607C15.762 40.867 13.949 40.46 14.097 39.165C14.171 38.499 15.096 37.833 16.835 37.13C27.639 32.431 34.817 29.323 38.406 27.843C48.692 23.551 50.801 22.811 52.207 22.811C52.503 22.811 53.206 22.885 53.65 23.255C54.02 23.551 54.131 23.958 54.168 24.254C54.131 24.476 54.205 25.142 54.168 25.66Z" fill="white"/>
</svg>
