<svg width="83" height="82" viewBox="0 0 83 82" fill="none" xmlns="http://www.w3.org/2000/svg">
<path d="M48.0366 40.2868L38.4443 35.8109C37.6072 35.4223 36.9196 35.8579 36.9196 36.7847V45.2153C36.9196 46.1421 37.6072 46.5777 38.4443 46.1891L48.0323 41.7132C48.8737 41.3203 48.8737 40.6797 48.0366 40.2868ZM41.1904 0C18.5465 0 0.19043 18.356 0.19043 41C0.19043 63.644 18.5465 82 41.1904 82C63.8344 82 82.1904 63.644 82.1904 41C82.1904 18.356 63.8344 0 41.1904 0ZM41.1904 57.6562C20.2036 57.6562 19.8363 55.7643 19.8363 41C19.8363 26.2357 20.2036 24.3437 41.1904 24.3437C62.1773 24.3437 62.5446 26.2357 62.5446 41C62.5446 55.7643 62.1773 57.6562 41.1904 57.6562Z" fill="white"/>
</svg>
