<svg xmlns="http://www.w3.org/2000/svg" width="113" height="113" viewBox="0 0 113 113" fill="none">
  <circle cx="56.5" cy="56.5" r="56.5" fill="white"/>
  <path d="M66.7143 67.1786C66.7143 68.5796 65.5796 69.7143 64.1786 69.7143H48.9643C47.5633 69.7143 46.4286 68.5796 46.4286 67.1786V59.5714H16V82.3929C16 86.45 19.55 90 23.6071 90H89.5357C93.5929 90 97.1429 86.45 97.1429 82.3929V59.5714H66.7143V67.1786ZM89.5357 34.2143H76.8571V26.6071C76.8571 22.55 73.3071 19 69.25 19H43.8929C39.8357 19 36.2857 22.55 36.2857 26.6071V34.2143H23.6071C19.55 34.2143 16 37.7643 16 41.8214V54.5H97.1429V41.8214C97.1429 37.7643 93.5929 34.2143 89.5357 34.2143ZM66.7143 34.2143H46.4286V29.1429H66.7143V34.2143Z" fill="#00356B"/>
</svg>