<svg xmlns="http://www.w3.org/2000/svg" width="25" height="16" viewBox="0 0 25 16" fill="none">
  <mask id="path-1-inside-1_0_74" fill="white">
    <path d="M24.2866 0.249828C24.3657 0.326086 24.4277 0.415841 24.4688 0.513965C24.51 0.612089 24.5296 0.71666 24.5265 0.821703C24.5234 0.926747 24.4977 1.03021 24.4508 1.12617C24.4039 1.22213 24.3368 1.30872 24.2533 1.38098L7.61062 15.7804C7.52667 15.8531 7.42778 15.91 7.31966 15.9476C7.21153 15.9852 7.09632 16.0029 6.98067 15.9996C6.86502 15.9963 6.75123 15.9722 6.64586 15.9285C6.5405 15.8849 6.44565 15.8226 6.36679 15.7452L0.235282 9.74546C0.156832 9.66861 0.0957242 9.57841 0.0554465 9.47999C0.0151688 9.38158 -0.00348952 9.27688 0.000536697 9.17188C0.00456291 9.06688 0.0311948 8.96363 0.078912 8.86803C0.126629 8.77243 0.194497 8.68635 0.278641 8.6147C0.362784 8.54306 0.461556 8.48725 0.569316 8.45046C0.677075 8.41368 0.791713 8.39664 0.906684 8.40032C1.02166 8.40399 1.13471 8.42831 1.23939 8.47189C1.34406 8.51547 1.43832 8.57745 1.51677 8.6543L7.04652 14.0645L23.048 0.219429C23.1315 0.147132 23.2298 0.0905676 23.3372 0.0529669C23.4447 0.0153662 23.5592 -0.00253422 23.6742 0.000288734C23.7892 0.00311169 23.9025 0.0266024 24.0076 0.069419C24.1126 0.112236 24.2075 0.173539 24.2866 0.249828Z"/>
  </mask>
  <path d="M24.2866 0.249828C24.3657 0.326086 24.4277 0.415841 24.4688 0.513965C24.51 0.612089 24.5296 0.71666 24.5265 0.821703C24.5234 0.926747 24.4977 1.03021 24.4508 1.12617C24.4039 1.22213 24.3368 1.30872 24.2533 1.38098L7.61062 15.7804C7.52667 15.8531 7.42778 15.91 7.31966 15.9476C7.21153 15.9852 7.09632 16.0029 6.98067 15.9996C6.86502 15.9963 6.75123 15.9722 6.64586 15.9285C6.5405 15.8849 6.44565 15.8226 6.36679 15.7452L0.235282 9.74546C0.156832 9.66861 0.0957242 9.57841 0.0554465 9.47999C0.0151688 9.38158 -0.00348952 9.27688 0.000536697 9.17188C0.00456291 9.06688 0.0311948 8.96363 0.078912 8.86803C0.126629 8.77243 0.194497 8.68635 0.278641 8.6147C0.362784 8.54306 0.461556 8.48725 0.569316 8.45046C0.677075 8.41368 0.791713 8.39664 0.906684 8.40032C1.02166 8.40399 1.13471 8.42831 1.23939 8.47189C1.34406 8.51547 1.43832 8.57745 1.51677 8.6543L7.04652 14.0645L23.048 0.219429C23.1315 0.147132 23.2298 0.0905676 23.3372 0.0529669C23.4447 0.0153662 23.5592 -0.00253422 23.6742 0.000288734C23.7892 0.00311169 23.9025 0.0266024 24.0076 0.069419C24.1126 0.112236 24.2075 0.173539 24.2866 0.249828Z" fill="#2B689F"/>
  <path d="M24.2866 0.249828L22.8984 1.68963L22.899 1.69021L24.2866 0.249828ZM24.2533 1.38098L22.9448 -0.131557L22.9447 -0.131483L24.2533 1.38098ZM7.61062 15.7804L6.30201 14.268L6.30107 14.2688L7.61062 15.7804ZM6.98067 15.9996L7.03725 14.0004L6.98067 15.9996ZM6.36679 15.7452L7.76713 14.3173L7.76557 14.3157L6.36679 15.7452ZM0.235282 9.74546L-1.16426 11.1742L-1.16349 11.1749L0.235282 9.74546ZM1.51677 8.6543L0.117227 10.083L0.118093 10.0839L1.51677 8.6543ZM7.04652 14.0645L5.64784 15.4941L6.96336 16.7812L8.35514 15.5769L7.04652 14.0645ZM23.048 0.219429L24.3566 1.73188L24.3572 1.73143L23.048 0.219429ZM22.899 1.69021C22.7888 1.58403 22.6922 1.44892 22.6246 1.28777L26.3131 -0.259845C26.1631 -0.617242 25.9427 -0.931859 25.6741 -1.19056L22.899 1.69021ZM22.6246 1.28777C22.5567 1.12601 22.522 0.946929 22.5274 0.762877L26.5257 0.88053C26.5373 0.48639 26.4633 0.0981733 26.3131 -0.259845L22.6246 1.28777ZM22.5274 0.762877C22.5328 0.578885 22.5779 0.403545 22.6538 0.248246L26.2478 2.00409C26.4175 1.65687 26.5141 1.27461 26.5257 0.88053L22.5274 0.762877ZM22.6538 0.248246C22.7294 0.0935745 22.8315 -0.0335446 22.9448 -0.131557L25.5618 2.89352C25.8422 2.65098 26.0785 2.35069 26.2478 2.00409L22.6538 0.248246ZM22.9447 -0.131483L6.30201 14.268L8.91922 17.2929L25.5619 2.89345L22.9447 -0.131483ZM6.30107 14.2688C6.41461 14.1704 6.53866 14.1017 6.6624 14.0587L7.97691 17.8365C8.31689 17.7182 8.63873 17.5359 8.92016 17.2921L6.30107 14.2688ZM6.6624 14.0587C6.78602 14.0156 6.91285 13.9969 7.03725 14.0004L6.9241 17.9988C7.27979 18.0089 7.63705 17.9548 7.97691 17.8365L6.6624 14.0587ZM7.03725 14.0004C7.16163 14.0039 7.28845 14.0299 7.41152 14.0809L5.8802 17.7762C6.21401 17.9145 6.56841 17.9888 6.9241 17.9988L7.03725 14.0004ZM7.41152 14.0809C7.53475 14.1319 7.65724 14.2095 7.76713 14.3173L4.96646 17.1732C5.23406 17.4356 5.54625 17.6378 5.8802 17.7762L7.41152 14.0809ZM7.76557 14.3157L1.63405 8.31597L-1.16349 11.1749L4.96802 17.1747L7.76557 14.3157ZM1.63482 8.31672C1.74448 8.42414 1.84011 8.56041 1.90643 8.72245L-1.79554 10.2375C-1.64866 10.5964 -1.43081 10.9131 -1.16426 11.1742L1.63482 8.31672ZM1.90643 8.72245C1.97299 8.8851 2.00612 9.0646 1.99907 9.24851L-1.99799 9.09525C-2.0131 9.48916 -1.94266 9.87806 -1.79554 10.2375L1.90643 8.72245ZM1.99907 9.24851C1.99202 9.43234 1.94537 9.60699 1.86839 9.76121L-1.71056 7.97485C-1.88298 8.32028 -1.98289 8.70142 -1.99799 9.09525L1.99907 9.24851ZM1.86839 9.76121C1.79172 9.91482 1.6889 10.0407 1.57524 10.1375L-1.01796 7.09194C-1.29991 7.33201 -1.53846 7.63004 -1.71056 7.97485L1.86839 9.76121ZM1.57524 10.1375C1.46193 10.234 1.33848 10.3012 1.21543 10.3432L-0.0767943 6.5577C-0.41537 6.67328 -0.736363 6.85216 -1.01796 7.09194L1.57524 10.1375ZM1.21543 10.3432C1.09248 10.3852 0.966415 10.4032 0.842752 10.3993L0.970617 6.40134C0.617013 6.39003 0.261673 6.44216 -0.0767943 6.5577L1.21543 10.3432ZM0.842752 10.3993C0.719087 10.3953 0.593047 10.3692 0.47071 10.3183L2.00806 6.62551C1.67637 6.48742 1.32422 6.41265 0.970617 6.40134L0.842752 10.3993ZM0.47071 10.3183C0.348229 10.2673 0.226508 10.1901 0.117228 10.083L2.91631 7.22557C2.65013 6.96482 2.3399 6.76366 2.00806 6.62551L0.47071 10.3183ZM0.118093 10.0839L5.64784 15.4941L8.44519 12.6349L2.91544 7.22472L0.118093 10.0839ZM8.35514 15.5769L24.3566 1.73188L21.7394 -1.29302L5.73789 12.552L8.35514 15.5769ZM24.3572 1.73143C24.2442 1.82919 24.1209 1.89764 23.9979 1.9407L22.6766 -1.83477C22.3387 -1.7165 22.0188 -1.53493 21.7389 -1.29257L24.3572 1.73143ZM23.9979 1.9407C23.8749 1.98373 23.7488 2.00272 23.6251 1.99969L23.7233 -1.99911C23.3695 -2.00779 23.0144 -1.953 22.6766 -1.83477L23.9979 1.9407ZM23.6251 1.99969C23.5014 1.99665 23.3753 1.97146 23.2528 1.92155L24.7623 -1.78271C24.4297 -1.91825 24.077 -1.99043 23.7233 -1.99911L23.6251 1.99969ZM23.2528 1.92155C23.1302 1.87159 23.0082 1.79551 22.8984 1.68963L25.6747 -1.18997C25.4067 -1.44843 25.095 -1.64712 24.7623 -1.78271L23.2528 1.92155Z" fill="#2B689F" mask="url(#path-1-inside-1_0_74)"/>
</svg>